<?xml version="1.0" standalone="no"?>
<!DOCTYPE svg PUBLIC "-//W3C//DTD SVG 20010904//EN"
 "http://www.w3.org/TR/2001/REC-SVG-20010904/DTD/svg10.dtd">
<svg version="1.0" xmlns="http://www.w3.org/2000/svg"
 width="700.000000pt" height="700.000000pt" viewBox="0 0 700.000000 700.000000"
 preserveAspectRatio="xMidYMid meet">
<metadata>
Created by potrace 1.14, written by Peter Selinger 2001-2017
</metadata>
<g transform="translate(0.000000,700.000000) scale(0.100000,-0.100000)"
fill="#000000" stroke="none">
<path d="M3278 6995 c-1 -1 -41 -6 -87 -9 -116 -10 -250 -28 -361 -51 -14 -3
-38 -8 -55 -11 -126 -22 -378 -99 -562 -170 -487 -187 -1004 -551 -1338 -939
-33 -38 -68 -79 -78 -90 -30 -33 -150 -194 -204 -275 -116 -173 -226 -376
-313 -575 -52 -119 -142 -380 -165 -481 -2 -10 -9 -37 -15 -59 -38 -150 -72
-352 -87 -517 -10 -103 -10 -559 0 -651 68 -653 299 -1247 686 -1767 64 -86
70 -93 177 -215 457 -521 1069 -897 1741 -1070 73 -19 147 -37 165 -40 18 -4
51 -10 73 -15 48 -10 105 -19 160 -25 22 -3 51 -7 65 -10 149 -31 694 -26 907
9 21 4 52 8 68 10 190 24 607 142 782 222 28 13 54 24 58 24 3 0 54 23 113 52
417 200 804 490 1102 827 36 41 70 79 77 86 40 42 215 286 284 396 209 337
385 775 454 1129 14 72 35 192 39 225 3 22 8 60 12 85 3 25 8 59 10 75 8 60
11 532 4 610 -15 154 -21 210 -25 225 -2 8 -7 35 -10 60 -15 115 -77 371 -124
517 -128 392 -330 768 -590 1098 -30 39 -57 72 -60 75 -4 3 -35 38 -71 79
-144 165 -381 380 -544 494 -48 34 -94 67 -100 72 -14 12 -18 14 -156 99 -421
257 -932 432 -1405 482 -27 3 -66 8 -85 10 -38 6 -536 14 -542 9z m447 -359
c77 -6 155 -15 275 -31 128 -18 344 -72 505 -126 626 -211 1180 -624 1564
-1167 240 -341 431 -777 506 -1157 62 -318 80 -564 61 -867 -6 -102 -14 -165
-41 -343 -31 -197 -128 -513 -222 -722 -230 -514 -603 -967 -1063 -1294 -156
-111 -420 -258 -580 -323 -36 -15 -74 -31 -85 -36 -153 -67 -517 -161 -723
-185 -26 -3 -56 -8 -67 -10 -105 -22 -550 -22 -700 0 -16 2 -48 6 -70 9 -172
18 -478 94 -672 166 -243 91 -508 229 -708 369 -202 141 -452 366 -582 523
-32 38 -68 82 -81 96 -126 145 -330 485 -427 712 -15 36 -34 80 -42 99 -50
113 -143 442 -168 591 -3 19 -7 42 -10 50 -2 8 -6 40 -10 71 -3 31 -8 67 -10
80 -23 118 -23 598 -1 715 2 11 7 47 11 79 4 33 9 69 11 80 54 301 135 560
252 805 30 63 60 129 68 145 8 17 19 37 24 45 5 8 35 58 66 110 215 362 552
722 899 962 411 283 904 475 1370 533 28 4 60 8 73 10 13 2 71 7 130 11 59 3
108 7 109 8 5 4 257 -2 338 -8z"/>
<path d="M3205 6163 c-36 -19 -66 -56 -81 -97 -7 -21 -10 -384 -9 -1141 1
-610 0 -1117 -2 -1125 -4 -13 -127 -15 -1031 -15 -1132 -1 -1064 3 -1109 -64
-25 -37 -31 -107 -13 -142 27 -49 43 -51 509 -55 240 -2 706 -6 1035 -9 345
-3 602 -9 605 -14 3 -5 6 -224 5 -488 -1 -416 -3 -485 -18 -535 -83 -284 -420
-379 -634 -179 -52 48 -100 127 -111 183 -6 29 -12 105 -15 169 -2 64 -8 125
-14 135 -19 35 -69 76 -103 83 -76 17 -132 -25 -147 -111 -9 -46 -8 -234 1
-281 30 -154 105 -289 217 -390 67 -60 136 -99 235 -133 68 -23 97 -27 190
-27 197 0 335 55 471 188 69 68 89 96 127 175 71 150 71 144 72 710 l0 505
108 3 107 3 0 -63 c1 -35 2 -612 3 -1283 l2 -1220 22 -41 c38 -71 113 -102
172 -71 26 13 59 68 68 114 3 15 6 598 6 1296 l0 1267 142 0 142 0 53 -127
c29 -71 61 -146 70 -168 10 -22 48 -112 85 -200 37 -88 73 -173 80 -190 20
-49 32 -78 142 -340 57 -137 131 -315 165 -395 69 -166 111 -220 170 -220 75
0 141 70 141 149 0 29 -94 269 -202 516 -24 54 -49 113 -171 405 -73 173 -138
329 -145 345 -8 17 -32 73 -54 125 l-39 95 102 7 c264 18 459 173 532 423 14
51 17 107 17 380 0 304 -1 325 -22 394 -32 104 -75 176 -150 251 -69 68 -149
116 -241 146 -49 15 -109 17 -515 19 -436 2 -462 2 -498 -17 -45 -22 -78 -71
-76 -113 0 -16 1 -296 0 -620 l-1 -590 -105 0 c-58 0 -106 2 -106 5 -1 3 -2
523 -3 1155 -2 1075 -3 1152 -19 1183 -28 52 -101 68 -162 35z m1450 -1332
c86 -38 155 -122 171 -206 4 -22 8 -159 8 -304 1 -280 -5 -333 -46 -398 -28
-47 -110 -110 -161 -125 -29 -8 -153 -12 -387 -13 -190 -1 -350 0 -356 2 -17
6 -15 1056 2 1063 7 3 172 5 366 4 341 -1 355 -2 403 -23z"/>
</g>
</svg>
